<svg version="1.1" id="education_x5F_icons_1_" xmlns="http://www.w3.org/2000/svg" x="0" y="0" viewBox="0 0 128 128" style="enable-background:new 0 0 128 128" xml:space="preserve">
    <style>.st0{display:none}.st1{display:inline}.st2,.st3{fill:#ffffff}.st3{display:inline;fill-rule:evenodd;clip-rule:evenodd}</style>
    <g id="row1_1_">
        <g id="university_1_">
            <path class="st2" d="M65.2 16.9 0 45.9h128l-62.8-29zm0 19.3c-2.7 0-4.8-2.2-4.8-4.8 0-2.7 2.2-4.8 4.8-4.8 2.7 0 4.8 2.2 4.8 4.8 0 2.7-2.1 4.8-4.8 4.8zm36.2 58V53.1h4.8v-4.8H19.3v4.8h4.8v41.1h7.2V53.1h7.2v41.1h7.2V53.1h14.5v41.1h7.2V53.1h12.1v41.1h7.2V53.1h7.2v41.1h7.5zm4.9 2.4h-87v4.8h-7.2v9.7h101.4v-9.7h-7.2v-4.8z" id="icon_14_"/>
        </g>
    </g>
</svg>
